<svg xmlns="http://www.w3.org/2000/svg" width="256" height="256" viewBox="0 0 100 100"><rect width="100" height="100" rx="50" fill="#b8ac9a"></rect><path d="M31.63 67.77L4.55 67.77L4.55 64.70L8.53 64.01L8.53 36.01L4.55 35.33L4.55 32.23L30.87 32.23L30.87 40.77L27.01 40.77L26.48 35.94L13.34 35.94L13.34 47.51L26.45 47.51L26.45 51.29L13.34 51.29L13.34 64.16L27.26 64.16L27.80 59.25L31.63 59.25L31.63 67.77ZM53.28 67.77L36.44 67.77L36.44 64.70L40.42 64.01L40.42 36.01L36.44 35.33L36.44 32.23L40.42 32.23L51.77 32.23Q57.34 32.23 60.47 34.63Q63.61 37.04 63.61 41.85L63.61 41.85Q63.61 44.21 62.11 46.08Q60.61 47.95 58.14 48.85L58.14 48.85Q60.29 49.29 61.83 50.57Q63.37 51.86 64.21 53.70Q65.05 55.54 65.05 57.74L65.05 57.74Q65.05 62.62 61.88 65.20Q58.70 67.77 53.28 67.77L53.28 67.77ZM45.23 51.10L45.23 64.01L53.28 64.01Q56.58 64.01 58.40 62.39Q60.22 60.77 60.22 57.79L60.22 57.79Q60.22 55.69 59.55 54.20Q58.87 52.71 57.50 51.90Q56.12 51.10 54.02 51.10L54.02 51.10L45.23 51.10ZM45.23 36.01L45.23 47.34L53.02 47.34Q55.60 47.34 57.20 45.84Q58.80 44.34 58.80 41.75L58.80 41.75Q58.80 38.87 56.99 37.44Q55.19 36.01 51.77 36.01L51.77 36.01L45.23 36.01ZM81.48 67.77L68.71 67.77L68.71 64.70L72.69 64.01L72.69 36.01L68.71 35.33L68.71 32.23L95.45 32.23L95.45 40.77L91.59 40.77L91.05 35.96L77.50 35.96L77.50 48.27L90.52 48.27L90.52 52.05L77.50 52.05L77.50 64.01L81.48 64.70L81.48 67.77Z" fill="#fff"></path></svg>